<?xml version="1.0" encoding="UTF-8"?>
<svg id="Capa_1" data-name="Capa 1" xmlns="http://www.w3.org/2000/svg" version="1.1" viewBox="0 0 800 800">
  <defs>
    <style>
      .cls-1 {
        fill: #fff;
        stroke-width: 0px;
      }
    </style>
  </defs>
  <path class="cls-1" d="M595,512l97.9-383.3h107.1v-60.3h-153.9l-23.1,90.4L0,158.3l66.2,353.7h528.8s0,0,0,0ZM607.6,219l-59.4,232.7H116.3l-43.7-233.1,535,.4Z"/>
  <path class="cls-1" d="M512.5,731.6c53.1,0,96.4-43.2,96.4-96.4s-43.2-96.4-96.4-96.4H149.5c-53.1,0-96.4,43.2-96.4,96.4s43.2,96.4,96.4,96.4,96.4-43.2,96.4-96.4-2.5-24.9-7-36.1h184.4c-4.5,11.2-7,23.3-7,36.1,0,53.1,43.2,96.4,96.4,96.4ZM185.6,635.2c0,19.9-16.2,36.1-36.1,36.1s-36.1-16.2-36.1-36.1,16.2-36.1,36.1-36.1c19.9,0,36.1,16.2,36.1,36.1ZM548.6,635.2c0,19.9-16.2,36.1-36.1,36.1s-36.1-16.2-36.1-36.1,16.2-36.1,36.1-36.1,36.1,16.2,36.1,36.1Z"/>
</svg>