<?xml version="1.0" encoding="UTF-8"?>
<svg id="Capa_2" data-name="Capa 2" xmlns="http://www.w3.org/2000/svg" viewBox="0 0 417.73 436.75">
  <defs>
    <style>
      .cls-1 {
        fill: #101538;
      }

      .cls-2 {
        fill: #9fffb8;
      }
    </style>
  </defs>
  <g id="TREND">
    <g>
      <circle class="cls-2" cx="267.72" cy="150.01" r="150.01"/>
      <path class="cls-1" d="M350.18,19.41c-2.07-2.92-5.44-4.66-9.02-4.66s-6.95,1.74-9.02,4.66l-56.58,79.86c-2.4,3.39-2.71,7.78-.8,11.47,1.91,3.69,5.67,5.98,9.82,5.98h19.13v308.98c0,6.1,4.96,11.05,11.05,11.05h52.64c6.1,0,11.05-4.96,11.05-11.05V116.71h19.28c4.15,0,7.91-2.29,9.82-5.98,1.91-3.69,1.6-8.08-.8-11.47l-56.58-79.86ZM377.93,105.13c-6.1,0-11.05,4.96-11.05,11.05v308.98h-51.59V116.18c0-6.1-4.96-11.05-11.05-11.05h-18.64l55.56-78.42,55.56,78.42h-18.78Z"/>
      <rect class="cls-1" x="74.48" y="229.25" width="15.01" height="102.36" rx="7.5" ry="7.5" transform="translate(362.42 198.45) rotate(90)"/>
      <rect class="cls-1" x="187.76" y="229.25" width="15.01" height="102.36" rx="7.5" ry="7.5" transform="translate(475.69 85.17) rotate(90)"/>
      <rect class="cls-1" x="130.85" y="128.9" width="15.55" height="215.63" rx="7.5" ry="7.5" transform="translate(375.33 98.09) rotate(90)"/>
      <rect class="cls-1" x="109.98" y="235.4" width="15.55" height="173.9" rx="7.5" ry="7.5" transform="translate(440.1 204.59) rotate(90)"/>
      <rect class="cls-2" x="88.5" y="370.14" width="100.24" height="21.44" rx="3.41" ry="3.41"/>
      <path class="cls-1" d="M264.03,433.45H13.22c-7.03,0-12.75-5.72-12.75-12.74v-232.08c0-7.03,5.72-12.75,12.75-12.75h250.81c7.03,0,12.75,5.72,12.75,12.75v232.08c0,7.03-5.72,12.74-12.75,12.74ZM13.22,186.88c-.96,0-1.75.78-1.75,1.75v232.08c0,.96.78,1.74,1.75,1.74h250.81c.96,0,1.75-.78,1.75-1.74v-232.08c0-.96-.78-1.75-1.75-1.75H13.22Z"/>
      <g>
        <path class="cls-1" d="M0,111.37c0-22.52,17.29-38.64,40.56-38.64,9.32,0,17.53,2.45,24.02,7.01,3.93,2.77,4.26,8.48.73,11.75h0c-2.66,2.46-6.69,2.69-9.61.54-4.12-3.02-8.9-4.58-14.28-4.58-13.98,0-23.91,9.82-23.91,23.91s9.93,23.91,23.91,23.91c5.39,0,10.16-1.55,14.29-4.62,2.92-2.17,6.98-1.96,9.65.51h0c3.53,3.25,3.2,8.95-.71,11.73-6.51,4.64-14.76,7.1-24.19,7.1-23.16,0-40.45-16.12-40.45-38.64Z"/>
        <path class="cls-1" d="M76.63,111.37c0-22.2,17.29-38.64,40.88-38.64s40.88,16.33,40.88,38.64-17.4,38.64-40.88,38.64-40.88-16.44-40.88-38.64ZM140.88,111.37c0-14.2-10.03-23.91-23.37-23.91s-23.37,9.71-23.37,23.91,10.03,23.91,23.37,23.91,23.37-9.71,23.37-23.91Z"/>
        <path class="cls-1" d="M171.41,81.61c0-4.19,3.4-7.59,7.59-7.59h26.35c24.44,0,41.2,14.73,41.2,37.35s-16.76,37.35-41.2,37.35h-26.35c-4.19,0-7.59-3.4-7.59-7.59v-59.54ZM204.49,134.53c14.84,0,24.55-8.86,24.55-23.16s-9.71-23.16-24.55-23.16h-12.85c-1.63,0-2.95,1.32-2.95,2.95v40.42c0,1.63,1.32,2.95,2.95,2.95h12.85Z"/>
      </g>
    </g>
  </g>
</svg>